<?xml version="1.0" encoding="UTF-8"?>
<svg xmlns="http://www.w3.org/2000/svg" xmlns:xlink="http://www.w3.org/1999/xlink" viewBox="0 0 400 400" width="52px" height="52px">
<g id="surface38919038">
<path style=" stroke:none;fill-rule:nonzero;fill:rgb(100%,100%,100%);fill-opacity:1;" d="M 116 68 C 89.53125 68 68 89.53125 68 116 L 68 284 C 68 310.46875 89.53125 332 116 332 L 284 332 C 310.46875 332 332 310.46875 332 284 L 332 116 C 332 89.53125 310.46875 68 284 68 Z M 116 76 L 284 76 C 306.054688 76 324 93.945312 324 116 L 324 284 C 324 306.054688 306.054688 324 284 324 L 116 324 C 93.945312 324 76 306.054688 76 284 L 76 116 C 76 93.945312 93.945312 76 116 76 Z M 138 92 C 112.636719 92 92 112.636719 92 138 L 92 262 C 92 287.363281 112.636719 308 138 308 L 262 308 C 287.363281 308 308 287.363281 308 262 L 308 202 C 308 200.894531 307.105469 200 306 200 C 304.894531 200 304 200.894531 304 202 L 304 262 C 304 285.160156 285.160156 304 262 304 L 237.90625 304 L 237.90625 270.617188 C 237.90625 261.765625 233.757812 253.472656 226.929688 248 L 229.703125 248 C 258.394531 248 281.734375 224.746094 281.734375 196.15625 C 281.734375 183.207031 276.933594 170.84375 268.195312 161.226562 C 269.515625 152.96875 269.535156 140.574219 265.796875 129.367188 C 265.519531 128.550781 264.757812 128 263.898438 128 C 247.695312 128 234.011719 138.757812 228.304688 144 L 178.671875 144 C 164.671875 130.785156 152.050781 128 143.90625 128 C 143.046875 128 142.285156 128.550781 142.007812 129.367188 C 138.9375 138.570312 137.585938 149.585938 138.421875 158.398438 C 128.027344 168.214844 122.085938 181.917969 122.085938 196.164062 C 122.085938 224.75 145.421875 248 174.109375 248 L 176.78125 248 C 171.496094 252.128906 167.714844 257.804688 166.265625 263.984375 C 158.277344 263.855469 149.121094 262.671875 144.84375 256.257812 C 135.144531 241.699219 130.25 240.609375 123.898438 240.609375 C 121.246094 240.609375 119.25 241.769531 118.414062 243.789062 C 117.238281 246.621094 118.609375 250.390625 122.085938 253.867188 C 126.773438 258.558594 126.777344 258.554688 131.554688 268.101562 C 134.441406 273.878906 142.71875 283.453125 165.90625 283.976562 L 165.90625 304 L 138 304 C 114.839844 304 96 285.160156 96 262 L 96 138 C 96 114.839844 114.839844 96 138 96 L 262 96 C 263.105469 96 264 95.105469 264 94 C 264 92.894531 263.105469 92 262 92 Z M 145.351562 132.03125 C 152.824219 132.367188 163.828125 135.402344 176.140625 147.109375 L 176.507812 147.460938 C 176.878906 147.808594 177.367188 148 177.875 148 L 229.09375 148 C 229.601562 148 230.136719 147.769531 230.507812 147.421875 C 235.277344 142.929688 247.726562 132.679688 262.453125 132.03125 C 265.648438 142.609375 265.417969 154.097656 264.085938 161.515625 C 263.972656 162.144531 264.164062 162.78125 264.601562 163.242188 C 273.066406 172.210938 277.734375 183.898438 277.734375 196.15625 C 277.734375 222.535156 256.1875 244 229.703125 244 L 219.90625 244 C 218.964844 244 218.152344 244.65625 217.953125 245.570312 C 217.75 246.484375 218.214844 247.421875 219.070312 247.8125 C 228.078125 251.945312 233.90625 260.894531 233.90625 270.617188 L 233.90625 304 L 169.90625 304 L 169.90625 282 C 169.90625 280.894531 169.011719 280 167.90625 280 C 151.183594 280 139.539062 275.136719 135.132812 266.3125 C 130.160156 256.371094 130.0625 256.1875 124.914062 251.039062 C 122.230469 248.351562 121.765625 246.144531 122.109375 245.320312 C 122.363281 244.699219 123.339844 244.609375 123.898438 244.609375 C 128.390625 244.609375 132.273438 244.609375 141.515625 258.476562 C 147.144531 266.914062 158.574219 268 167.90625 268 C 168.886719 268 169.71875 267.289062 169.875 266.320312 C 171.148438 258.523438 176.839844 251.4375 184.734375 247.820312 C 185.589844 247.429688 186.0625 246.496094 185.859375 245.578125 C 185.660156 244.65625 184.847656 244 183.90625 244 L 174.117188 244 C 147.636719 244 126.085938 222.535156 126.085938 196.15625 C 126.085938 182.695312 131.835938 169.757812 141.859375 160.65625 C 142.335938 160.21875 142.582031 159.585938 142.507812 158.945312 C 141.59375 151.078125 142.703125 140.679688 145.351562 132.03125 Z M 306 136 C 304.894531 136 304 136.894531 304 138 L 304 152 C 304 153.105469 304.894531 154 306 154 C 307.105469 154 308 153.105469 308 152 L 308 138 C 308 136.894531 307.105469 136 306 136 Z M 306 164 C 304.894531 164 304 164.894531 304 166 L 304 192 C 304 193.105469 304.894531 194 306 194 C 307.105469 194 308 193.105469 308 192 L 308 166 C 308 164.894531 307.105469 164 306 164 Z M 306 164 "/>
</g>
</svg>
